<?xml version="1.0" encoding="UTF-8"?>
<svg id="Layer_2" data-name="Layer 2" xmlns="http://www.w3.org/2000/svg" viewBox="0 0 505.44 505.44">
  <defs>
    <style>
      .cls-1 {
        fill: #fff;
      }
    </style>
  </defs>
  <g id="Layer_1-2" data-name="Layer 1">
    <circle class="cls-1" cx="252.72" cy="252.72" r="252.72"/>
    <g>
      <path d="M412.86,412.7c-12.76,0-24.75-.13-36.74,.11-2.45,.05-5.26,.9-7.26,2.3-24.7,17.19-51.7,28.96-81.38,34.05-54.95,9.43-105.14-2.61-150.94-34.06-2.02-1.39-4.81-2.24-7.26-2.29-11.66-.25-23.33-.14-35-.17-.31,0-.61-.17-1.55-.45,0-9.74-.35-19.7,.12-29.61,.33-6.97-1.15-12.79-5.47-18.44-4.42-5.77-7.78-12.35-11.91-19.07,9.79-3.93,19.02-7.64,27.85-11.19,46.88,71.4,111.31,102.73,194.95,80.78,66.26-17.39,104.85-64.29,121.18-131.2h-6.21c-14.34,0-28.67-.16-43.01,.09-4.76,.08-7.42-2.74-8.66-6.18-.81-2.25,.81-5.45,1.58-8.16,.25-.88,1.17-1.59,1.87-2.3,18.45-18.79,36.87-37.61,55.4-56.33,5.59-5.65,13.11-5.81,18.68-.23,18.96,18.99,37.77,38.13,56.61,57.23,2.6,2.64,4.24,5.53,2.28,9.4-1.96,3.86-3.91,6.8-9.25,6.62-12.79-.43-25.61-.14-38.49-.14-1.88,7.97-3.45,15.61-5.49,23.12-6.19,22.73-16.5,43.51-30.07,62.74-1.14,1.61-1.7,3.95-1.72,5.96-.15,12.29-.08,24.59-.08,37.44Z"/>
      <path d="M331.53,348.51h-62.54c1.98-4.04,3.95-7.65,5.52-11.43,.7-1.7,1.31-3.99,.75-5.58-7.05-20.09-14.32-40.11-21.55-60.14-.14-.39-.55-.69-1.27-1.57-2.01,5.55-3.87,10.63-5.7,15.72-5.06,14.09-9.94,28.26-15.28,42.24-1.63,4.26-1.87,7.81,.62,11.69,1.68,2.62,2.83,5.58,4.47,8.89h-63.93c3.35-3.16,5.91-5.68,8.57-8.08,5.35-4.84,6.89-10.8,5.36-17.7-9.49-42.55-18.88-85.13-28.62-127.62-.91-3.97-3.52-7.81-6.16-11.04-3-3.67-6.91-6.59-10.43-9.84,.24-.36,.49-.71,.73-1.07h62.35c-1.48,3.06-2.8,6.01-4.29,8.86-2.35,4.48-2.86,9-1.58,13.99,5.88,23.05,11.56,46.15,17.67,70.67,12.33-31.63,24.18-62.01,36.57-93.78,12.37,31.72,24.22,62.12,36.55,93.73,5.06-20.2,9.54-39.11,14.57-57.88,3.25-12.12,6.82-23.98-3.83-35.55h64.9c-4.37,4.17-8.35,7.42-11.61,11.27-2.38,2.82-4.72,6.24-5.52,9.75-9.78,42.83-19.29,85.72-28.84,128.6-1.49,6.68-.1,12.56,5.1,17.3,2.7,2.46,5.38,4.96,8.06,7.45-.21,.37-.42,.74-.63,1.11Z"/>
      <path d="M57.49,206.59c5.27-13.67,9.59-26.83,15.37-39.31,4.73-10.22,11.33-19.56,16.78-29.47,1.59-2.88,2.84-6.35,2.94-9.59,.35-11.63,.14-23.28,.14-35.6,7.55,0,14.86-.51,22.07,.12,12.06,1.05,22.26-1.91,32.45-8.95,20.51-14.19,43.74-22.45,68.22-27.12,48.87-9.31,94.7-.84,137.76,23.65,3.18,1.81,6.64,3.39,9.3,5.82,6.41,5.84,13.76,7.08,22.09,6.6,9.13-.52,18.31-.12,28.25-.12v9.43c0,3.33,0,6.67,0,10,0,12.54-2.39,25.68,10.98,35.35-8.47,3.41-15.33,6.17-22.19,8.93-7.84,3.15-7.64,2.98-12.86-3.7-40.17-51.41-92.81-75.39-157.65-66.95-65.65,8.55-110.63,45.83-136.2,106.67-1.85,4.39-3.09,9.04-4.84,14.24h6.67c12.67,0,25.34,.24,38-.12,4.8-.14,7.38,1.62,9.23,5.75,1.94,4.33,.77,7.67-2.37,10.82-18.69,18.79-37.29,37.67-56.02,56.41-5.68,5.68-13.02,5.73-18.65,.07-18.67-18.8-37.26-37.69-55.76-56.66-5.91-6.06-5.91-9.2-.29-14.17,1.42-1.26,3.8-1.97,5.75-1.99,13.82-.17,27.65-.09,40.84-.09Z"/>
    </g>
  </g>
</svg>